<svg xmlns="http://www.w3.org/2000/svg" viewBox="0 0 48 48" width="48" height="48">
  <defs>
    <linearGradient id="favBack" x1="0%" y1="0%" x2="100%" y2="100%">
      <stop offset="0%" stop-color="#1E293B" />
      <stop offset="100%" stop-color="#020617" />
    </linearGradient>
    <linearGradient id="favFront" x1="0%" y1="0%" x2="100%" y2="100%">
      <stop offset="0%" stop-color="#334155" />
      <stop offset="100%" stop-color="#0F172A" />
    </linearGradient>
    <linearGradient id="favReveal" x1="0%" y1="0%" x2="100%" y2="100%">
      <stop offset="0%" stop-color="#8957E5" />
      <stop offset="100%" stop-color="#C084FC" />
    </linearGradient>
    <mask id="favMask">
      <rect width="48" height="48" fill="white" />
      <g stroke="black" fill="black" stroke-linecap="round" stroke-linejoin="round">
        <path d="M 16 20 L 16 38" stroke-width="4.5" />
        <path d="M 16 29 C 16 20, 32 26, 32 20" stroke-width="4.5" fill="none" />
        <circle cx="16" cy="20" r="4.5" />
        <circle cx="16" cy="38" r="4.5" />
        <circle cx="32" cy="20" r="4.5" />
      </g>
    </mask>
  </defs>
  <path d="M 0 6 A 4 4 0 0 1 4 2 H 18 L 24 8 H 44 A 4 4 0 0 1 48 12 V 42 A 4 4 0 0 1 44 46 H 4 A 4 4 0 0 1 0 42 Z" fill="url(#favBack)" />
  <path d="M 0 16 A 4 4 0 0 1 4 12 H 44 A 4 4 0 0 1 48 16 V 42 A 4 4 0 0 1 44 46 H 4 A 4 4 0 0 1 0 42 Z" fill="url(#favReveal)" />
  <path d="M 0 16 A 4 4 0 0 1 4 12 H 44 A 4 4 0 0 1 48 16 V 42 A 4 4 0 0 1 44 46 H 4 A 4 4 0 0 1 0 42 Z" fill="url(#favFront)" mask="url(#favMask)" />
</svg>
